:SAMPLES-PER-SECOND 30
:FULLY-SPECIFIED
:DEGREES
94
root  -16.114 39.0232 13.0761 13.2462 77.7728 17.4623
RightUpLeg  -17.7518 -8.18749 -5.85647
RightLeg  -4.45749 -10.0819 6.46686
RightFoot  0.406135 -0.763352 7.41944
RightToes  0.000482159 0.542163 -0.142577
Spine  8.81057 -1.30671 -6.92412
Spine1  4.69646 -3.26922 5.87552
HEad  4.05236 12.2233 -2.43575
LeftShoulder1  6.9856 -10.5389 -43.2544
LeftArm  -1.90066 7.36795 -31.8646
LeftForeArm  32.2732 -23.5622 -3.39441
LeftHand  -0.25398 0.0180481 5.50724
RightShoulder  4.23414 7.38562 32.9397
RightArm  -8.73895 -22.8633 39.6517
RightForeArm  16.3262 9.50677 6.15677
RightHand  -1.10451 1.69958 -18.1713
LeftUpLeg  15.9048 6.18305 -4.60887
LeftLeg  12.7959 5.80469 -2.71752
LeftFoot  -19.8512 0.241978 1.62875
LeftToes  1.06245e-005 4.65855e-005 -8.18503e-006
95
root  -14.4531 38.7764 13.5536 11.4809 78.4713 15.781
RightUpLeg  -19.3797 -7.94704 -4.58874
RightLeg  -0.149727 -12.0032 5.6791
RightFoot  2.54727 -0.327457 2.99312
RightToes  0.000482159 0.542163 -0.142577
Spine  8.93097 -1.39624 -5.44604
Spine1  5.13346 -3.3562 5.87202
HEad  3.57086 11.7476 -2.68704
LeftShoulder1  6.95329 -10.5127 -43.1279
LeftArm  -3.73106 6.00806 -32.2318
LeftForeArm  33.6684 -25.6456 -3.71382
LeftHand  -0.25398 0.0180481 5.50724
RightShoulder  4.28093 7.43773 33.1814
RightArm  -10.7615 -22.4046 39.2289
RightForeArm  16.4378 8.0307 5.66063
RightHand  -1.08006 1.58173 -18.0639
LeftUpLeg  18.0846 8.57041 -2.80648
LeftLeg  14.7431 2.45923 -1.64629
LeftFoot  -19.9575 0.102579 -0.208574
LeftToes  1.06245e-005 4.65855e-005 -8.18503e-006
96
root  -12.6408 38.5584 14.0138 3.95544 78.7118 8.68515
RightUpLeg  -21.3601 -10.2629 -1.35078
RightLeg  8.35815 -9.62863 3.24541
RightFoot  6.67675 0.416395 -2.35986
RightToes  0.000482159 0.542163 -0.142577
Spine  9.05174 -1.69 -2.10651
Spine1  5.71747 -3.25588 4.92094
HEad  3.4266 11.8665 -3.38966
LeftShoulder1  6.94415 -10.4859 -43.155
LeftArm  -6.26368 6.04002 -32.6073
LeftForeArm  34.919 -28.0218 -4.16483
LeftHand  -0.25398 0.0180481 5.50724
RightShoulder  4.32613 7.47416 33.4622
RightArm  -11.6463 -21.6277 38.4964
RightForeArm  15.4953 7.4384 5.39003
RightHand  -1.09579 1.63966 -18.1766
LeftUpLeg  20.312 10.3938 -0.110226
LeftLeg  17.6922 -0.430797 -0.477858
LeftFoot  -19.402 -0.168455 -4.02451
LeftToes  1.06245e-005 4.65855e-005 -8.18503e-006
97
root  -10.7327 38.3712 14.4682 -6.9495 78.175 -1.54751
RightUpLeg  -22.6958 -16.134 3.92353
RightLeg  16.4097 -1.29567 0.494891
RightFoot  8.44816 1.00237 -5.45706
RightToes  0.000482159 0.542163 -0.142577
Spine  9.40106 -2.04098 1.91053
Spine1  5.99149 -3.0562 4.00918
HEad  3.98871 12.4846 -4.52927
LeftShoulder1  6.92928 -10.3996 -43.3395
LeftArm  -8.566 7.49855 -33.2784
LeftForeArm  34.8067 -29.8769 -4.58282
LeftHand  -0.25398 0.0180481 5.50724
RightShoulder  4.32909 7.45501 33.5573
RightArm  -11.8238 -20.5414 37.4794
RightForeArm  14.6116 7.67735 5.37404
RightHand  -1.11513 1.73287 -18.2605
LeftUpLeg  21.3563 9.90678 2.5971
LeftLeg  23.0246 -0.564704 0.165845
LeftFoot  -16.6514 -0.3239 -9.67805
LeftToes  1.06245e-005 4.65855e-005 -8.18503e-006
98
root  -8.92119 38.2706 14.9502 -16.4142 77.417 -10.7218
RightUpLeg  -22.6463 -15.6589 6.10482
RightLeg  22.5772 -0.537126 -0.637522
RightFoot  5.68748 1.09412 -7.05071
RightToes  0.000482159 0.542163 -0.142577
Spine  9.66044 -2.31163 4.93002
Spine1  6.10633 -3.03832 4.39033
HEad  4.99511 13.0513 -5.50014
LeftShoulder1  6.87177 -10.2626 -43.4098
LeftArm  -9.68834 9.63951 -34.3696
LeftForeArm  33.0943 -30.6651 -4.85531
LeftHand  -0.25398 0.0180481 5.50724
RightShoulder  4.29045 7.39603 33.4172
RightArm  -11.7761 -19.163 36.5747
RightForeArm  13.5043 8.70395 5.48344
RightHand  -1.18291 2.07219 -18.4995
LeftUpLeg  18.9475 8.53414 4.81918
LeftLeg  32.2215 1.38556 1.35018
LeftFoot  -8.05668 0.399448 -13.0436
LeftToes  1.06245e-005 4.65855e-005 -8.18503e-006
99
root  -7.31409 38.2035 15.4444 -24.2972 77.4358 -19.0843
RightUpLeg  -22.1883 -14.8065 7.38372
RightLeg  26.9946 -2.3934 -1.5591
RightFoot  1.03215 0.878647 -8.00566
RightToes  0.000482159 0.542163 -0.142577
Spine  9.42089 -2.64646 6.89768
Spine1  6.46878 -3.29096 5.80473
HEad  5.91644 12.9564 -5.70526
LeftShoulder1  6.84068 -10.2316 -43.3053
LeftArm  -9.22498 11.5031 -35.3215
LeftForeArm  31.366 -30.6216 -4.93914
LeftHand  -0.25398 0.0180481 5.50724
RightShoulder  4.23641 7.30604 33.2457
RightArm  -11.5726 -17.5671 36.2025
RightForeArm  10.7476 10.4571 5.65003
RightHand  -1.36982 2.88503 -19.3235
LeftUpLeg  12.4504 6.59704 6.23978
LeftLeg  43.985 3.26764 3.76147
LeftFoot  6.04616 1.6005 -10.9776
LeftToes  1.06245e-005 4.65855e-005 -8.18503e-006
